<?xml version="1.0" encoding="utf-8"?>
<!-- Generator: Adobe Illustrator 25.4.1, SVG Export Plug-In . SVG Version: 6.00 Build 0)  -->
<svg version="1.1" id="Warstwa_1" xmlns="http://www.w3.org/2000/svg" xmlns:xlink="http://www.w3.org/1999/xlink" x="0px" y="0px"
	 viewBox="0 0 148.6 83.9" style="enable-background:new 0 0 148.6 83.9;" xml:space="preserve">
<g>
	<path d="M48,47.8V17.5L74.3,2.3l26.3,15.2v30.3L74.3,63L48,47.8z M74.3,61l9-5.1V40.4l-22.3,13L74.3,61z M85,54.9l13.9-8V35.7
		L85,27.9V54.9z M59.4,52.5L72.2,45L49.7,32v14.9L59.4,52.5z M73.9,44l9.5-5.5V26.9l-9.7-5.4L64,27v11.3L73.9,44z M62.4,37.4V11.1
		l-12.7,7.4V30L62.4,37.4z M98.9,33.8L99,18.4l-9.9-5.7l-13.8,7.8L98.9,33.8z M64,25.1l23.4-13.4L74.3,4.2L64,10.1V25.1z"/>
	<path d="M74.3,2.6l26,15v30.1l-26,15l-26-15V17.6L74.3,2.6 M63.8,25.6l24.1-13.8L74.3,3.9L63.8,10V25.6 M62.6,37.8V10.6l-13.2,7.6
		v11.9L62.6,37.8 M99.2,34.2l0.1-15.9l-10.1-5.8l-14.3,8.1L99.2,34.2 M73.9,44.3l9.7-5.7V26.8l-9.9-5.6l-9.9,5.6v11.6L73.9,44.3
		 M84.7,55.3L99.2,47V35.5l-14.4-8.1V55.3 M59.4,52.8L72.7,45L49.4,31.5V47L59.4,52.8 M74.3,61.3l9.3-5.3V39.9l-23,13.5L74.3,61.3
		 M74.3,2l-0.3,0.1l-26,15l-0.3,0.1v0.3v30.1v0.3l0.3,0.1l26,15l0.3,0.1l0.2-0.1l26-15l0.2-0.1v-0.3V17.6v-0.3l-0.2-0.1l-26-15
		L74.3,2L74.3,2z M64.3,10.3l10-5.8l12.6,7.3L64.3,24.7V10.3L64.3,10.3z M49.9,18.6l12.2-7.1v25.4l-12.2-7V18.6L49.9,18.6z
		 M75.8,20.5L89.1,13l9.6,5.6l-0.1,14.8L75.8,20.5L75.8,20.5z M64.3,27.2l9.4-5.4l9.4,5.3v11.2l-9.2,5.4l-9.6-5.5V27.2L64.3,27.2z
		 M85.2,54.5V28.3l13.4,7.5v10.9L85.2,54.5L85.2,54.5z M49.9,46.7V32.4L71.7,45l-12.3,7.2L49.9,46.7L49.9,46.7z M61.6,53.4
		l21.5-12.6v14.9l-8.8,5L61.6,53.4L61.6,53.4z"/>
</g>
<g>
	<path d="M15.3,73.7c0.1,0,0.2,0,0.2,0c0.1,0,0.2,0.1,0.2,0.2l1.4,1.4c-0.6,0.8-1.3,1.4-2.2,1.8c-0.9,0.4-1.9,0.6-3.2,0.6
		c-1.1,0-2.1-0.2-3-0.6s-1.6-0.9-2.3-1.6c-0.6-0.7-1.1-1.5-1.4-2.4c-0.3-0.9-0.5-1.9-0.5-3c0-1.1,0.2-2.1,0.5-3
		c0.4-0.9,0.9-1.7,1.5-2.4s1.4-1.2,2.3-1.6c0.9-0.4,1.9-0.6,3-0.6c0.6,0,1.1,0,1.6,0.1s0.9,0.2,1.4,0.4c0.4,0.2,0.8,0.4,1.2,0.6
		c0.4,0.2,0.7,0.5,0.9,0.8l-1.2,1.5c-0.1,0.1-0.2,0.2-0.3,0.3c-0.1,0.1-0.2,0.1-0.4,0.1c-0.1,0-0.2,0-0.3-0.1
		c-0.1-0.1-0.2-0.1-0.3-0.2s-0.3-0.2-0.4-0.3c-0.1-0.1-0.3-0.2-0.5-0.3c-0.2-0.1-0.4-0.1-0.7-0.2s-0.6-0.1-0.9-0.1
		c-0.6,0-1.1,0.1-1.6,0.3c-0.5,0.2-0.9,0.5-1.2,0.9c-0.3,0.4-0.6,0.9-0.8,1.5c-0.2,0.6-0.3,1.2-0.3,2c0,0.8,0.1,1.4,0.3,2
		s0.5,1.1,0.8,1.5c0.4,0.4,0.8,0.7,1.2,0.9c0.5,0.2,1,0.3,1.5,0.3c0.3,0,0.6,0,0.8,0c0.3,0,0.5-0.1,0.7-0.2c0.2-0.1,0.4-0.2,0.6-0.3
		s0.4-0.3,0.6-0.4c0.1-0.1,0.2-0.1,0.3-0.2C15.1,73.7,15.2,73.7,15.3,73.7z"/>
	<path d="M22.9,66.9c0.8,0,1.5,0.1,2.2,0.4s1.2,0.6,1.7,1.1s0.8,1,1.1,1.7c0.3,0.7,0.4,1.4,0.4,2.2c0,0.8-0.1,1.6-0.4,2.3
		c-0.3,0.7-0.6,1.2-1.1,1.7c-0.5,0.5-1,0.8-1.7,1.1c-0.7,0.3-1.4,0.4-2.2,0.4c-0.8,0-1.5-0.1-2.2-0.4c-0.7-0.3-1.2-0.6-1.7-1.1
		c-0.5-0.5-0.8-1-1.1-1.7c-0.3-0.7-0.4-1.4-0.4-2.3c0-0.8,0.1-1.6,0.4-2.2c0.3-0.7,0.6-1.2,1.1-1.7c0.5-0.5,1-0.8,1.7-1.1
		C21.4,67,22.1,66.9,22.9,66.9z M22.9,75.3c0.7,0,1.3-0.3,1.6-0.8s0.5-1.3,0.5-2.3c0-1-0.2-1.8-0.5-2.3c-0.3-0.5-0.9-0.8-1.6-0.8
		c-0.7,0-1.3,0.3-1.6,0.8c-0.3,0.5-0.5,1.3-0.5,2.3c0,1,0.2,1.8,0.5,2.3C21.6,75.1,22.2,75.3,22.9,75.3z"/>
	<path d="M29.8,77.5V67h1.9c0.4,0,0.6,0.2,0.8,0.5l0.2,0.6c0.2-0.2,0.4-0.3,0.5-0.5c0.2-0.2,0.4-0.3,0.6-0.4
		c0.2-0.1,0.5-0.2,0.7-0.3c0.3-0.1,0.5-0.1,0.8-0.1c0.6,0,1.2,0.2,1.6,0.5c0.4,0.3,0.7,0.8,0.9,1.3c0.2-0.3,0.4-0.6,0.6-0.8
		c0.3-0.2,0.5-0.4,0.8-0.6c0.3-0.1,0.6-0.2,0.9-0.3s0.7-0.1,1-0.1c0.6,0,1.1,0.1,1.6,0.3s0.9,0.4,1.2,0.8c0.3,0.3,0.6,0.8,0.7,1.3
		c0.2,0.5,0.2,1.1,0.2,1.7v6.7h-3.1v-6.7c0-1.1-0.5-1.6-1.4-1.6c-0.4,0-0.8,0.1-1.1,0.4c-0.3,0.3-0.4,0.7-0.4,1.2v6.7h-3.1v-6.7
		c0-0.6-0.1-1-0.4-1.3s-0.6-0.4-1-0.4c-0.3,0-0.6,0.1-0.8,0.2c-0.3,0.1-0.5,0.3-0.7,0.5v7.6H29.8z"/>
	<path d="M49.9,68.3c0.4-0.4,0.9-0.8,1.4-1.1c0.5-0.3,1.1-0.4,1.9-0.4c0.5,0,1.1,0.1,1.5,0.4s0.9,0.6,1.2,1.1s0.6,1,0.8,1.7
		c0.2,0.7,0.3,1.4,0.3,2.3c0,0.8-0.1,1.5-0.3,2.2c-0.2,0.7-0.5,1.2-0.9,1.7s-0.9,0.9-1.4,1.2c-0.5,0.3-1.2,0.4-1.8,0.4
		c-0.5,0-1-0.1-1.4-0.2c-0.4-0.2-0.7-0.4-1-0.6v4H47V67h1.9c0.4,0,0.6,0.2,0.8,0.5L49.9,68.3z M50.1,74.7c0.2,0.3,0.5,0.4,0.8,0.5
		c0.3,0.1,0.6,0.2,0.9,0.2c0.3,0,0.6-0.1,0.8-0.2c0.2-0.1,0.5-0.3,0.6-0.6c0.2-0.3,0.3-0.6,0.4-1s0.2-0.9,0.2-1.5c0-0.6,0-1-0.1-1.4
		c-0.1-0.4-0.2-0.7-0.3-0.9c-0.1-0.2-0.3-0.4-0.5-0.5c-0.2-0.1-0.4-0.2-0.7-0.2c-0.5,0-0.8,0.1-1.1,0.3c-0.3,0.2-0.6,0.4-0.8,0.7
		V74.7z"/>
	<path d="M58.4,68.5c0.6-0.6,1.3-1,2.1-1.2c0.8-0.3,1.6-0.4,2.5-0.4c0.6,0,1.2,0.1,1.7,0.3c0.5,0.2,0.9,0.5,1.3,0.9
		c0.4,0.4,0.6,0.8,0.8,1.3s0.3,1.1,0.3,1.7v6.5h-1.4c-0.3,0-0.5,0-0.7-0.1c-0.2-0.1-0.3-0.2-0.4-0.5l-0.2-0.6
		c-0.3,0.2-0.5,0.4-0.8,0.6c-0.2,0.2-0.5,0.3-0.8,0.4c-0.3,0.1-0.5,0.2-0.8,0.3c-0.3,0.1-0.6,0.1-1,0.1c-0.5,0-0.9-0.1-1.3-0.2
		c-0.4-0.1-0.7-0.3-1-0.6c-0.3-0.2-0.5-0.5-0.6-0.9c-0.1-0.4-0.2-0.8-0.2-1.2c0-0.4,0.1-0.8,0.3-1.1c0.2-0.4,0.5-0.7,1-1.1
		c0.5-0.3,1.1-0.6,1.9-0.8c0.8-0.2,1.8-0.3,3-0.4V71c0-0.6-0.1-1.1-0.4-1.3c-0.3-0.3-0.6-0.4-1.1-0.4c-0.4,0-0.7,0-0.9,0.1
		c-0.2,0.1-0.4,0.2-0.6,0.3c-0.2,0.1-0.4,0.2-0.5,0.3C60.3,70,60.1,70,59.9,70c-0.2,0-0.4-0.1-0.5-0.2c-0.1-0.1-0.3-0.2-0.4-0.4
		L58.4,68.5z M64,73.2c-0.6,0-1.1,0.1-1.5,0.2c-0.4,0.1-0.7,0.2-1,0.3S61.1,74,61,74.1c-0.1,0.2-0.1,0.3-0.1,0.5
		c0,0.4,0.1,0.6,0.3,0.8c0.2,0.1,0.5,0.2,0.9,0.2c0.4,0,0.8-0.1,1.1-0.2c0.3-0.1,0.6-0.4,0.9-0.7V73.2z"/>
	<path d="M72,68.2c0.2-0.2,0.4-0.4,0.6-0.5c0.2-0.2,0.4-0.3,0.7-0.4c0.2-0.1,0.5-0.2,0.8-0.3c0.3-0.1,0.6-0.1,0.9-0.1
		c0.6,0,1.1,0.1,1.5,0.3c0.4,0.2,0.8,0.5,1.1,0.8c0.3,0.4,0.5,0.8,0.7,1.3s0.2,1,0.2,1.6v6.7h-3.1v-6.7c0-0.5-0.1-0.9-0.4-1.2
		c-0.2-0.3-0.6-0.4-1-0.4c-0.3,0-0.7,0.1-1,0.2c-0.3,0.1-0.6,0.3-0.9,0.6v7.5h-3.1V67H71c0.4,0,0.6,0.2,0.8,0.5L72,68.2z"/>
	<path d="M90.2,67l-5.6,13.2c-0.1,0.2-0.2,0.4-0.3,0.5c-0.1,0.1-0.4,0.1-0.6,0.1h-2.3l2-4.2L79.1,67h2.8c0.2,0,0.4,0.1,0.6,0.2
		c0.1,0.1,0.2,0.2,0.3,0.4l1.7,4.5c0.2,0.4,0.3,0.8,0.4,1.3c0.1-0.2,0.1-0.4,0.2-0.6s0.2-0.4,0.2-0.6l1.6-4.5
		c0.1-0.2,0.2-0.3,0.3-0.4s0.3-0.2,0.5-0.2H90.2z"/>
	<path d="M98.2,68.2c0.2-0.2,0.4-0.4,0.6-0.5c0.2-0.2,0.4-0.3,0.7-0.4s0.5-0.2,0.8-0.3c0.3-0.1,0.6-0.1,0.9-0.1
		c0.6,0,1.1,0.1,1.5,0.3c0.4,0.2,0.8,0.5,1.1,0.8c0.3,0.4,0.5,0.8,0.7,1.3c0.2,0.5,0.2,1,0.2,1.6v6.7h-3.1v-6.7
		c0-0.5-0.1-0.9-0.4-1.2s-0.6-0.4-1-0.4c-0.3,0-0.7,0.1-1,0.2s-0.6,0.3-0.9,0.6v7.5h-3.1V67h1.9c0.4,0,0.6,0.2,0.8,0.5L98.2,68.2z"
		/>
	<path d="M106.6,68.5c0.6-0.6,1.3-1,2.1-1.2c0.8-0.3,1.6-0.4,2.5-0.4c0.6,0,1.2,0.1,1.7,0.3c0.5,0.2,0.9,0.5,1.3,0.9
		c0.4,0.4,0.6,0.8,0.8,1.3s0.3,1.1,0.3,1.7v6.5h-1.4c-0.3,0-0.5,0-0.7-0.1c-0.2-0.1-0.3-0.2-0.4-0.5l-0.2-0.6
		c-0.3,0.2-0.5,0.4-0.8,0.6s-0.5,0.3-0.8,0.4c-0.3,0.1-0.5,0.2-0.8,0.3c-0.3,0.1-0.6,0.1-1,0.1c-0.5,0-0.9-0.1-1.3-0.2
		c-0.4-0.1-0.7-0.3-1-0.6c-0.3-0.2-0.5-0.5-0.6-0.9c-0.1-0.4-0.2-0.8-0.2-1.2c0-0.4,0.1-0.8,0.3-1.1c0.2-0.4,0.5-0.7,1-1.1
		c0.5-0.3,1.1-0.6,1.9-0.8c0.8-0.2,1.8-0.3,3-0.4V71c0-0.6-0.1-1.1-0.4-1.3c-0.3-0.3-0.6-0.4-1.1-0.4c-0.4,0-0.7,0-0.9,0.1
		c-0.2,0.1-0.4,0.2-0.6,0.3c-0.2,0.1-0.4,0.2-0.5,0.3c-0.2,0.1-0.4,0.1-0.6,0.1c-0.2,0-0.4-0.1-0.5-0.2s-0.3-0.2-0.4-0.4L106.6,68.5
		z M112.2,73.2c-0.6,0-1.1,0.1-1.5,0.2c-0.4,0.1-0.7,0.2-1,0.3c-0.2,0.1-0.4,0.3-0.5,0.4c-0.1,0.2-0.1,0.3-0.1,0.5
		c0,0.4,0.1,0.6,0.3,0.8c0.2,0.1,0.5,0.2,0.9,0.2c0.4,0,0.8-0.1,1.1-0.2c0.3-0.1,0.6-0.4,0.9-0.7V73.2z"/>
	<path d="M117.3,77.5V67h1.9c0.4,0,0.6,0.2,0.8,0.5l0.2,0.6c0.2-0.2,0.4-0.3,0.5-0.5c0.2-0.2,0.4-0.3,0.6-0.4
		c0.2-0.1,0.5-0.2,0.7-0.3c0.3-0.1,0.5-0.1,0.8-0.1c0.6,0,1.2,0.2,1.6,0.5c0.4,0.3,0.7,0.8,0.9,1.3c0.2-0.3,0.4-0.6,0.6-0.8
		c0.3-0.2,0.5-0.4,0.8-0.6s0.6-0.2,0.9-0.3s0.7-0.1,1-0.1c0.6,0,1.1,0.1,1.6,0.3s0.9,0.4,1.2,0.8c0.3,0.3,0.6,0.8,0.7,1.3
		c0.2,0.5,0.2,1.1,0.2,1.7v6.7h-3.1v-6.7c0-1.1-0.5-1.6-1.4-1.6c-0.4,0-0.8,0.1-1.1,0.4c-0.3,0.3-0.4,0.7-0.4,1.2v6.7h-3.1v-6.7
		c0-0.6-0.1-1-0.4-1.3c-0.2-0.2-0.6-0.4-1-0.4c-0.3,0-0.5,0.1-0.8,0.2s-0.5,0.3-0.7,0.5v7.6H117.3z"/>
	<path d="M137.1,72.8c0.1,0.9,0.4,1.5,0.8,1.9c0.4,0.4,1,0.6,1.7,0.6c0.4,0,0.7,0,0.9-0.1s0.5-0.2,0.7-0.3s0.4-0.2,0.6-0.3
		c0.2-0.1,0.4-0.1,0.5-0.1c0.2,0,0.4,0.1,0.6,0.3l0.9,1.1c-0.3,0.4-0.7,0.7-1,0.9c-0.4,0.2-0.8,0.4-1.2,0.5
		c-0.4,0.1-0.8,0.2-1.2,0.3c-0.4,0.1-0.8,0.1-1.1,0.1c-0.7,0-1.4-0.1-2.1-0.4c-0.6-0.2-1.2-0.6-1.7-1.1s-0.9-1.1-1.1-1.8
		c-0.3-0.7-0.4-1.5-0.4-2.4c0-0.7,0.1-1.4,0.4-2c0.2-0.6,0.6-1.2,1-1.6c0.4-0.5,1-0.8,1.6-1.1c0.6-0.3,1.4-0.4,2.2-0.4
		c0.7,0,1.3,0.1,1.9,0.3c0.6,0.2,1.1,0.5,1.5,0.9c0.4,0.4,0.7,0.9,1,1.5c0.2,0.6,0.3,1.3,0.3,2c0,0.2,0,0.4,0,0.6
		c0,0.1-0.1,0.3-0.1,0.4c-0.1,0.1-0.1,0.1-0.2,0.2c-0.1,0-0.2,0.1-0.3,0.1H137.1z M141,71c0-0.2,0-0.5-0.1-0.7
		c-0.1-0.2-0.2-0.4-0.3-0.6c-0.1-0.2-0.3-0.3-0.6-0.4c-0.2-0.1-0.5-0.2-0.9-0.2c-0.6,0-1.1,0.2-1.4,0.5c-0.3,0.3-0.6,0.8-0.7,1.5
		H141z"/>
</g>
</svg>
